<svg width="102" height="102" viewBox="0 0 102 102" fill="none" xmlns="http://www.w3.org/2000/svg">
<path d="M59 76.7227C59 75.0658 57.6569 73.7227 56 73.7227C48.268 73.7227 42 80.0527 42 87.8613V93.4157C42 98.1562 45.8056 102 50.5 102C55.1944 102 59 98.1562 59 93.4157V76.7227Z" fill="#BB6F5D"/>
<path d="M25 63.6831C25 66.9968 27.6863 69.6831 31 69.6831H70C73.3137 69.6831 76 66.9968 76 63.6831V35.3465L50 19.693C39.6872 11.986 25 19.3454 25 32.2198V63.6831Z" fill="#72470D"/>
<path d="M76 27.5C76 13.4167 64.5833 2 50.5 2C36.4167 2 25 13.4167 25 27.5V66.8136C25 69.6779 27.3221 72 30.1864 72C33.0508 72 35.3729 69.6779 35.3729 66.8136V52.9703C35.3729 50.2253 37.5982 48 40.3432 48C43.0883 48 45.3136 50.2253 45.3136 52.9703V60.4306C45.3136 63.295 47.6356 65.617 50.5 65.617H51.0375C53.605 65.617 55.6864 63.5356 55.6864 60.9681V60.6101C55.6864 58.2403 57.6076 56.3191 59.9774 56.3191H60.478C62.6086 56.3191 64.5919 57.4065 65.7377 59.2028C66.3506 60.1637 67.3679 60.7929 68.5014 60.9123L69.5189 61.0195C72.9829 61.3843 76 58.6683 76 55.1852V27.5Z" fill="#F7B155"/>
</svg>
