<svg width="118" height="118" viewBox="0 0 118 118" fill="none" xmlns="http://www.w3.org/2000/svg">
<g clip-path="url(#clip0_1_6)">
<path d="M101.825 15.6136C90.9251 -0.0864115 69.2251 -4.68641 53.6251 5.21359L26.1251 22.8136C18.6251 27.5136 13.4251 35.2136 11.9251 43.9136C10.6251 51.2136 11.7251 58.7136 15.2251 65.2136C12.8251 68.8136 11.2251 72.8136 10.5251 77.0136C8.92515 85.9136 11.0251 95.1136 16.2251 102.414C27.2251 118.114 48.8252 122.714 64.4252 112.814L91.9251 95.3136C99.4251 90.6136 104.625 82.9136 106.125 74.2136C107.425 66.9136 106.325 59.4136 102.825 52.9136C105.225 49.3136 106.825 45.3136 107.525 41.1136C109.225 32.1136 107.125 22.9136 101.825 15.6136Z" fill="#FF3E00"/>
<path d="M50.9 103.9C42 106.2 32.7 102.7 27.5 95.2C24.3 90.8 23.1 85.3 24 79.9C24.2 79 24.4 78.2 24.6 77.3L25.1 75.7L26.5 76.7C29.8 79.1 33.4 80.9 37.3 82.1L38.3 82.4L38.2 83.4C38.1 84.8 38.5 86.3 39.3 87.5C40.9 89.8 43.7 90.9 46.4 90.2C47 90 47.6 89.8 48.1 89.5L75.5 72C76.9 71.1 77.8 69.8 78.1 68.2C78.4 66.6 78 64.9 77.1 63.6C75.5 61.3 72.7 60.3 70 61C69.4 61.2 68.8 61.4 68.3 61.7L57.8 68.4C56.1 69.5 54.2 70.3 52.2 70.8C43.3 73.1 34 69.6 28.8 62.1C25.7 57.7 24.4 52.2 25.4 46.8C26.3 41.6 29.5 36.9 34 34.1L61.5 16.6C63.2 15.5 65.1 14.7 67.1 14.1C76 11.8 85.3 15.3 90.5 22.8C93.7 27.2 94.9 32.7 94 38.1C93.8 39 93.6 39.8 93.3 40.7L92.8 42.3L91.4 41.3C88.1 38.9 84.5 37.1 80.6 35.9L79.6 35.6L79.7 34.6C79.8 33.2 79.4 31.7 78.6 30.5C77 28.2 74.2 27.2 71.5 27.9C70.9 28.1 70.3 28.3 69.8 28.6L42.4 46.1C41 47 40.1 48.3 39.8 49.9C39.5 51.5 39.9 53.2 40.8 54.5C42.4 56.8 45.2 57.8 47.9 57.1C48.5 56.9 49.1 56.7 49.6 56.4L60.1 49.7C61.8 48.6 63.7 47.8 65.7 47.2C74.6 44.9 83.9 48.4 89.1 55.9C92.3 60.3 93.5 65.8 92.6 71.2C91.7 76.4 88.5 81.1 84 83.9L56.5 101.4C54.8 102.5 52.9 103.3 50.9 103.9Z" fill="white"/>
</g>
<defs>
<clipPath id="clip0_1_6">
<rect width="98.1" height="118" fill="white" transform="translate(10)"/>
</clipPath>
</defs>
</svg>
